<svg xmlns="http://www.w3.org/2000/svg" viewBox="0 0 50.715 50.715">
  <defs>
    <style>
      .cls-1, .cls-3 {
        fill: #fff;
      }

      .cls-2 {
        fill: #ff6565;
      }

      .cls-4, .cls-5 {
        stroke: none;
      }

      .cls-5 {
        fill: #ff7285;
      }
    </style>
  </defs>
  <g id="Group_231" data-name="Group 231" transform="translate(-26.692 -30.696)">
    <g id="Icon" transform="translate(26.692 30.696)">
      <g id="Icon.BG" class="cls-1" transform="translate(0 0)">
        <path class="cls-4" d="M 25.35769271850586 50.21538162231445 C 22.0017032623291 50.21538162231445 18.74637222290039 49.55822372436523 15.68211269378662 48.26215362548828 C 12.72213268280029 47.01018142700195 10.06370258331299 45.21778106689453 7.780652523040771 42.93473434448242 C 5.497602939605713 40.65168380737305 3.70520281791687 37.99325180053711 2.453232765197754 35.03327178955078 C 1.157162666320801 31.96901321411133 0.5000027418136597 28.71368217468262 0.5000027418136597 25.35769271850586 C 0.5000027418136597 22.0017032623291 1.157162666320801 18.74637222290039 2.453232765197754 15.68211269378662 C 3.70520281791687 12.72213268280029 5.497602939605713 10.06370258331299 7.780652523040771 7.780652523040771 C 10.06370258331299 5.497602939605713 12.72213268280029 3.70520281791687 15.68211269378662 2.453232765197754 C 18.74637222290039 1.157162666320801 22.0017032623291 0.5000027418136597 25.35769271850586 0.5000027418136597 C 28.71368217468262 0.5000027418136597 31.96901321411133 1.157162666320801 35.03327178955078 2.453232765197754 C 37.99325180053711 3.70520281791687 40.65168380737305 5.497602939605713 42.93473434448242 7.780652523040771 C 45.21778106689453 10.06370258331299 47.01018142700195 12.72213268280029 48.26215362548828 15.68211269378662 C 49.55822372436523 18.74637222290039 50.21538162231445 22.0017032623291 50.21538162231445 25.35769271850586 C 50.21538162231445 28.71368217468262 49.55822372436523 31.96901321411133 48.26215362548828 35.03327178955078 C 47.01018142700195 37.99325180053711 45.21778106689453 40.65168380737305 42.93473434448242 42.93473434448242 C 40.65168380737305 45.21778106689453 37.99325180053711 47.01018142700195 35.03327178955078 48.26215362548828 C 31.96901321411133 49.55822372436523 28.71368217468262 50.21538162231445 25.35769271850586 50.21538162231445 Z"/>
        <path class="cls-5" d="M 25.35769271850586 1.000003814697266 C 22.06898307800293 1.000003814697266 18.87918281555176 1.643871307373047 15.87688446044922 2.913742065429688 C 12.97651290893555 4.140491485595703 10.37149429321289 5.89691162109375 8.134201049804688 8.134201049804688 C 5.89691162109375 10.37149429321289 4.140491485595703 12.97651290893555 2.913742065429688 15.87688446044922 C 1.643871307373047 18.87918281555176 1.000003814697266 22.06898307800293 1.000003814697266 25.35769271850586 C 1.000003814697266 28.64640235900879 1.643871307373047 31.83620262145996 2.913742065429688 34.83849334716797 C 4.140491485595703 37.73887252807617 5.89691162109375 40.34389495849609 8.134201049804688 42.58118438720703 C 10.37149429321289 44.81847381591797 12.97651290893555 46.57489395141602 15.87688446044922 47.80164337158203 C 18.87918281555176 49.07151412963867 22.06898307800293 49.71538162231445 25.35769271850586 49.71538162231445 C 28.64640235900879 49.71538162231445 31.83620262145996 49.07151412963867 34.83849334716797 47.80164337158203 C 37.73887252807617 46.57489395141602 40.3438835144043 44.81847381591797 42.58118438720703 42.58118438720703 C 44.81847381591797 40.3438835144043 46.57489395141602 37.73887252807617 47.80164337158203 34.83849334716797 C 49.07151412963867 31.83620262145996 49.71538162231445 28.64640235900879 49.71538162231445 25.35769271850586 C 49.71538162231445 22.06898307800293 49.07151412963867 18.87918281555176 47.80164337158203 15.87688446044922 C 46.57489395141602 12.97651290893555 44.81847381591797 10.37149429321289 42.58118438720703 8.134201049804688 C 40.34389495849609 5.89691162109375 37.73887252807617 4.140491485595703 34.83849334716797 2.913742065429688 C 31.83620262145996 1.643871307373047 28.64640235900879 1.000003814697266 25.35769271850586 1.000003814697266 M 25.35769271850586 3.814697265625e-06 C 39.36235046386719 3.814697265625e-06 50.71538162231445 11.35302352905273 50.71538162231445 25.35769271850586 C 50.71538162231445 39.36235046386719 39.36235046386719 50.71538162231445 25.35769271850586 50.71538162231445 C 11.35302352905273 50.71538162231445 3.814697265625e-06 39.36235046386719 3.814697265625e-06 25.35769271850586 C 3.814697265625e-06 11.35302352905273 11.35302352905273 3.814697265625e-06 25.35769271850586 3.814697265625e-06 Z"/>
      </g>
    </g>
    <g id="Group_238" data-name="Group 238" transform="translate(37.131 47.082)">
      <g id="Group_232" data-name="Group 232" transform="translate(0.639 0.747)">
        <path id="Path_293" data-name="Path 293" class="cls-2" d="M15.565,9.9a1.392,1.392,0,0,0-.669-.8L13.2,8.231a1.35,1.35,0,0,0-1.041-.084,1.392,1.392,0,0,0-.8.669L7.32,16.633a1.371,1.371,0,0,0,.586,1.84l1.692.874a1.4,1.4,0,0,0,.688.149,1.361,1.361,0,0,0,1.153-.734l4.043-7.817A1.393,1.393,0,0,0,15.565,9.9Zm-.9.623L10.62,18.344a.436.436,0,0,1-.595.186l-1.692-.874a.436.436,0,0,1-.186-.595l4.043-7.817a.425.425,0,0,1,.26-.214.471.471,0,0,1,.121-.019.482.482,0,0,1,.223.046l1.692.874a.425.425,0,0,1,.214.26A.475.475,0,0,1,14.663,10.526Z" transform="translate(-7.168 -8.08)"/>
      </g>
      <g id="Group_233" data-name="Group 233" transform="translate(19.984 -0.005)">
        <path id="Path_294" data-name="Path 294" class="cls-2" d="M224.191,7.9,219.358.6a1.344,1.344,0,0,0-.864-.576,1.372,1.372,0,0,0-1.022.2L215.9,1.26a1.344,1.344,0,0,0-.576.864,1.372,1.372,0,0,0,.2,1.022l4.833,7.3a1.357,1.357,0,0,0,1.218.6,1.334,1.334,0,0,0,.66-.223L223.8,9.783A1.365,1.365,0,0,0,224.191,7.9ZM223.3,9.012l-1.571,1.041a.455.455,0,0,1-.613-.121l-4.833-7.3a.445.445,0,0,1,.121-.613L217.973.981a.454.454,0,0,1,.214-.074.572.572,0,0,1,.121.009.456.456,0,0,1,.279.186l4.833,7.3A.436.436,0,0,1,223.3,9.012Z" transform="translate(-215.295 0.005)"/>
      </g>
      <g id="Group_234" data-name="Group 234" transform="translate(4.693 3.741)">
        <path id="Path_295" data-name="Path 295" class="cls-2" d="M69.616,47.931a.481.481,0,0,0-.177-.251c-.019-.009-1.989-1.348-4.025-2.658-1.2-.771-2.184-1.376-2.937-1.813a5.885,5.885,0,0,0-1.775-.837,18.915,18.915,0,0,0-4.685-1.208.591.591,0,0,0-.065-.019c-.279-.074-.948-.242-1.143-.613a.454.454,0,0,0-.39-.232.43.43,0,0,0-.381.242L50.831,46.76a.44.44,0,0,0,.065.493l1.088,1.227A25.772,25.772,0,0,0,54.8,51.454c2.212,1.971,4.2,2.947,5.912,2.909a5.185,5.185,0,0,0,1.85.307,2.284,2.284,0,0,0,1.283-.409,2.873,2.873,0,0,0,.864-.864,1.834,1.834,0,0,0,1.3-.372,1.569,1.569,0,0,0,.521-1.19,1.576,1.576,0,0,0,1.013-.372,1.638,1.638,0,0,0,.5-1.18,1.723,1.723,0,0,0,1.329-.483A1.915,1.915,0,0,0,69.616,47.931Zm-9.007-4.675Zm8.115,5.958a.951.951,0,0,1-.744.2L63.7,47.188a.438.438,0,0,0-.586.177.448.448,0,0,0,.167.595l3.895,2.222a.81.81,0,0,1-.214.632.833.833,0,0,1-.632.149L62.6,49.167a.431.431,0,0,0-.576.2.438.438,0,0,0,.177.586l3.448,1.905a.727.727,0,0,1-.214.511.974.974,0,0,1-.734.158L61.79,51.082a.445.445,0,0,0-.586.2.433.433,0,0,0,.186.586l2.4,1.292a4.764,4.764,0,0,1-.474.4c-.66.483-1.943.13-2.38-.037a.316.316,0,0,0-.186-.028c-3.625.167-8.059-5.493-8.1-5.549-.009-.009-.009-.019-.019-.019l-.892-1.013,2.789-5.4a3.408,3.408,0,0,0,1.208.5.271.271,0,0,0,.084.019.138.138,0,0,0,.065.009,18.143,18.143,0,0,1,4.555,1.18.485.485,0,0,0,.2.037c.167.037.939.335,4.462,2.6,1.664,1.069,3.244,2.138,3.718,2.454A1.088,1.088,0,0,1,68.724,49.214Z" transform="translate(-50.783 -40.3)"/>
      </g>
      <path id="Path_296" data-name="Path 296" class="cls-3" d="M68.029,125.943h0a1.014,1.014,0,0,1-.279-1.4l.335-.511a1.014,1.014,0,0,1,1.4-.279h0a1.014,1.014,0,0,1,.279,1.4l-.335.511A1.023,1.023,0,0,1,68.029,125.943Z" transform="translate(-61.327 -112.098)"/>
      <g id="Group_235" data-name="Group 235" transform="translate(5.871 11.09)">
        <path id="Path_297" data-name="Path 297" class="cls-2" d="M66.57,120.49a1.4,1.4,0,0,0-2.538-.5l-.335.511a1.4,1.4,0,0,0,.39,1.943,1.348,1.348,0,0,0,.837.232.844.844,0,0,0,.214-.028,1.393,1.393,0,0,0,.892-.595l.335-.511A1.387,1.387,0,0,0,66.57,120.49Zm-.855.623-.335.511a.591.591,0,0,1-.4.26.58.58,0,0,1-.465-.093h0a.628.628,0,0,1-.177-.864l.335-.511a.631.631,0,0,1,.493-.279.608.608,0,0,1,.632.5A.606.606,0,0,1,65.715,121.113Z" transform="translate(-63.462 -119.362)"/>
      </g>
      <path id="Path_298" data-name="Path 298" class="cls-3" d="M83.077,124.758h0a1.146,1.146,0,0,1-.316-1.58l1.673-2.5a1.147,1.147,0,0,1,1.58-.316h0a1.146,1.146,0,0,1,.316,1.58l-1.673,2.5A1.132,1.132,0,0,1,83.077,124.758Z" transform="translate(-74.925 -109.007)"/>
      <g id="Group_236" data-name="Group 236" transform="translate(7.209 10.728)">
        <path id="Path_299" data-name="Path 299" class="cls-2" d="M82.65,116.727a1.543,1.543,0,0,0-.669-1,1.564,1.564,0,0,0-1.18-.232,1.543,1.543,0,0,0-1,.669l-1.673,2.5a1.564,1.564,0,0,0-.232,1.18,1.543,1.543,0,0,0,.669,1,1.56,1.56,0,0,0,.948.26,1.072,1.072,0,0,0,.242-.028,1.543,1.543,0,0,0,1-.669l1.673-2.5A1.585,1.585,0,0,0,82.65,116.727Zm-.967.7-1.673,2.5a.68.68,0,0,1-.446.3.709.709,0,0,1-.53-.1h0a.68.68,0,0,1-.3-.446.709.709,0,0,1,.1-.53l1.673-2.5a.68.68,0,0,1,.446-.3.453.453,0,0,1,.112-.009.669.669,0,0,1,.418.121.7.7,0,0,1,.2.967Z" transform="translate(-77.859 -115.459)"/>
      </g>
      <path id="Path_300" data-name="Path 300" class="cls-3" d="M111.71,143.989a.622.622,0,0,0-.381-.1.607.607,0,0,0-.493.279l-1.283,1.924a.61.61,0,0,0-.093.474.637.637,0,0,0,.27.4h0a.63.63,0,0,0,.874-.177l1.283-1.924a.61.61,0,0,0,.093-.474A.637.637,0,0,0,111.71,143.989Z" transform="translate(-99.301 -130.515)"/>
      <path id="Path_301" data-name="Path 301" class="cls-2" d="M104.228,135.662a1.466,1.466,0,0,0-.641-.957,1.5,1.5,0,0,0-2.091.418l-1.283,1.924a1.5,1.5,0,1,0,2.5,1.673L104,136.8A1.5,1.5,0,0,0,104.228,135.662Zm-3.114,2.742h0a.637.637,0,0,1-.27-.4.61.61,0,0,1,.093-.474l1.283-1.924a.607.607,0,0,1,.493-.279.626.626,0,0,1,.651.5.61.61,0,0,1-.093.474l-1.283,1.924A.639.639,0,0,1,101.114,138.4Z" transform="translate(-90.694 -121.956)"/>
      <path id="Path_302" data-name="Path 302" class="cls-3" d="M126.513,162h0a1.09,1.09,0,0,1-.3-1.506l.716-1.078a1.09,1.09,0,0,1,1.506-.3h0a1.09,1.09,0,0,1,.3,1.506l-.716,1.078A1.09,1.09,0,0,1,126.513,162Z" transform="translate(-114.346 -144.164)"/>
      <g id="Group_237" data-name="Group 237" transform="translate(11.266 14.356)">
        <path id="Path_303" data-name="Path 303" class="cls-2" d="M124.558,154.751a1.52,1.52,0,0,0-1.134-.223,1.466,1.466,0,0,0-.957.641l-.716,1.078a1.52,1.52,0,0,0-.223,1.134,1.466,1.466,0,0,0,.641.957,1.494,1.494,0,0,0,.9.251,1.054,1.054,0,0,0,.232-.028,1.466,1.466,0,0,0,.957-.641l.716-1.078A1.517,1.517,0,0,0,124.558,154.751Zm-.279,1.617-.716,1.078a.669.669,0,0,1-1.106-.753l.716-1.078a.639.639,0,0,1,.428-.279.381.381,0,0,1,.1-.009.625.625,0,0,1,.4.112A.679.679,0,0,1,124.279,156.368Z" transform="translate(-121.5 -154.5)"/>
      </g>
      <path id="Path_304" data-name="Path 304" class="cls-3" d="M117.011,38.43s-.288.66-2.64.121a10.845,10.845,0,0,0-6.209.428,14,14,0,0,0-2.2,3.495s-.372,1.487,1.311.93a3.75,3.75,0,0,0,2.231-1.9l.957-.539,8.524,4.9s.3.455,1.905-1.617Z" transform="translate(-96.106 -34.726)"/>
      <path id="Path_305" data-name="Path 305" class="cls-2" d="M112.657,30.2l-.3.679c-.084.056-.567.288-2.156-.074a11.39,11.39,0,0,0-2.1-.27,10.147,10.147,0,0,0-4.387.725l-.093.037-.065.074A14.314,14.314,0,0,0,101.271,35l-.009.028-.009.028a1.451,1.451,0,0,0,.3,1.32,1.52,1.52,0,0,0,1.571.13,4.238,4.238,0,0,0,2.426-2l.623-.344,8.263,4.75a.623.623,0,0,0,.344.13h.065c.344-.019.9-.288,2.1-1.831l.2-.251Zm2.194,7.929-8.672-4.982-1.171.66-.13.074-.056.139a3.342,3.342,0,0,1-1.971,1.655c-.437.149-.651.112-.7.056-.074-.065-.074-.3-.046-.446a13.469,13.469,0,0,1,2.054-3.263A10.483,10.483,0,0,1,110,31.659h.009a5.3,5.3,0,0,0,2.407.139c.074-.019.149-.046.214-.065l3.448,5.187A4.726,4.726,0,0,1,114.851,38.129Z" transform="translate(-91.827 -27.397)"/>
      <circle id="Ellipse_1" data-name="Ellipse 1" class="cls-2" cx="0.613" cy="0.613" r="0.613" transform="translate(5.521 3.266) rotate(-47.634)"/>
      <circle id="Ellipse_2" data-name="Ellipse 2" class="cls-2" cx="0.613" cy="0.613" r="0.613" transform="translate(2.49 9.417) rotate(-47.634)"/>
      <path id="Path_306" data-name="Path 306" class="cls-2" d="M238.918,23.276a.614.614,0,1,1-.641-.586A.6.6,0,0,1,238.918,23.276Z" transform="translate(-215.624 -20.585)"/>
      <circle id="Ellipse_3" data-name="Ellipse 3" class="cls-2" cx="0.613" cy="0.613" r="0.613" transform="translate(25.524 8.357) rotate(-47.634)"/>
      <path id="Path_307" data-name="Path 307" class="cls-2" d="M.177,21.1l.567.288a.377.377,0,0,0,.5-.158L4.62,14.7a.377.377,0,0,0-.158-.5l-.567-.288a.377.377,0,0,0-.5.158L.01,20.6A.378.378,0,0,0,.177,21.1Z" transform="translate(0 -12.582)"/>
      <path id="Path_308" data-name="Path 308" class="cls-2" d="M260.539.307l-.53.353a.381.381,0,0,0-.1.521l4.062,6.135a.381.381,0,0,0,.521.1l.53-.353a.381.381,0,0,0,.1-.521L261.059.409A.385.385,0,0,0,260.539.307Z" transform="translate(-235.721 -0.227)"/>
    </g>
  </g>
</svg>
